<svg width="235" height="76" viewBox="0 0 235 76" fill="none" xmlns="http://www.w3.org/2000/svg">
  <path d="M40.7511 27.9378C40.7511 29.3757 40.4211 30.6957 39.7611 31.8978C39.1011 33.0764 38.0875 34.031 36.7204 34.7617C35.3532 35.4925 33.6561 35.8578 31.629 35.8578H27.8811V44.7678H21.835V19.9471H31.629C33.609 19.9471 35.2825 20.2889 36.6497 20.9725C38.0168 21.656 39.0422 22.5989 39.7257 23.801C40.4093 25.0032 40.7511 26.3821 40.7511 27.9378ZM31.1693 31.0493C32.3243 31.0493 33.1847 30.7782 33.7504 30.236C34.3161 29.6939 34.599 28.9278 34.599 27.9378C34.599 26.9478 34.3161 26.1818 33.7504 25.6396C33.1847 25.0975 32.3243 24.8264 31.1693 24.8264H27.8811V31.0493H31.1693ZM56.0262 24.8264C58.2891 24.8264 60.1041 25.5807 61.4712 27.0893C62.8384 28.5743 63.5219 30.625 63.5219 33.2414V44.7678H57.5112V34.0546C57.5112 32.7346 57.1694 31.7092 56.4859 30.9785C55.8023 30.2478 54.883 29.8825 53.728 29.8825C52.573 29.8825 51.6537 30.2478 50.9701 30.9785C50.2866 31.7092 49.9448 32.7346 49.9448 34.0546V44.7678H43.8987V18.6035H49.9448V27.6903C50.5576 26.8182 51.3944 26.1228 52.4551 25.6042C53.5159 25.0857 54.7062 24.8264 56.0262 24.8264ZM73.7694 18.6035V44.7678H67.7234V18.6035H73.7694ZM96.7488 34.585C96.7488 35.1507 96.7134 35.74 96.6427 36.3528H82.9595C83.0538 37.5785 83.4427 38.5214 84.1263 39.1814C84.8334 39.8178 85.6938 40.136 86.7074 40.136C88.2159 40.136 89.2649 39.4996 89.8542 38.2268H96.2892C95.9592 39.5232 95.3581 40.69 94.4859 41.7271C93.6374 42.7643 92.5649 43.5775 91.2684 44.1668C89.972 44.756 88.5224 45.0507 86.9195 45.0507C84.9867 45.0507 83.2659 44.6382 81.7574 43.8132C80.2488 42.9882 79.0702 41.8096 78.2217 40.2775C77.3731 38.7453 76.9488 36.9539 76.9488 34.9032C76.9488 32.8525 77.3613 31.061 78.1863 29.5289C79.0349 27.9967 80.2134 26.8182 81.722 25.9932C83.2306 25.1682 84.9631 24.7557 86.9195 24.7557C88.8288 24.7557 90.5259 25.1564 92.0109 25.9578C93.4959 26.7592 94.6509 27.9025 95.4759 29.3875C96.3245 30.8725 96.7488 32.605 96.7488 34.585ZM90.5613 32.9939C90.5613 31.9568 90.2077 31.1318 89.5006 30.5189C88.7934 29.906 87.9095 29.5996 86.8488 29.5996C85.8352 29.5996 84.9749 29.8942 84.2677 30.4835C83.5842 31.0728 83.1599 31.9096 82.9949 32.9939H90.5613ZM105.984 27.8317C106.55 26.9125 107.363 26.17 108.424 25.6042C109.485 25.0385 110.699 24.7557 112.066 24.7557C113.692 24.7557 115.166 25.1682 116.486 25.9932C117.806 26.8182 118.843 27.9967 119.597 29.5289C120.375 31.061 120.764 32.8407 120.764 34.8678C120.764 36.895 120.375 38.6864 119.597 40.2421C118.843 41.7743 117.806 42.9646 116.486 43.8132C115.166 44.6382 113.692 45.0507 112.066 45.0507C110.675 45.0507 109.461 44.7796 108.424 44.2375C107.387 43.6718 106.574 42.9293 105.984 42.01V44.7678H99.9384V18.6035H105.984V27.8317ZM114.612 34.8678C114.612 33.3593 114.187 32.1807 113.339 31.3321C112.514 30.46 111.488 30.0239 110.263 30.0239C109.061 30.0239 108.035 30.46 107.187 31.3321C106.362 32.2042 105.949 33.3946 105.949 34.9032C105.949 36.4118 106.362 37.6021 107.187 38.4743C108.035 39.3464 109.061 39.7825 110.263 39.7825C111.465 39.7825 112.49 39.3464 113.339 38.4743C114.187 37.5785 114.612 36.3764 114.612 34.8678ZM132.916 45.0507C130.984 45.0507 129.239 44.6382 127.684 43.8132C126.151 42.9882 124.937 41.8096 124.042 40.2775C123.17 38.7453 122.734 36.9539 122.734 34.9032C122.734 32.876 123.181 31.0964 124.077 29.5643C124.973 28.0085 126.199 26.8182 127.754 25.9932C129.31 25.1682 131.054 24.7557 132.987 24.7557C134.92 24.7557 136.664 25.1682 138.22 25.9932C139.776 26.8182 141.001 28.0085 141.897 29.5643C142.793 31.0964 143.241 32.876 143.241 34.9032C143.241 36.9303 142.781 38.7218 141.862 40.2775C140.966 41.8096 139.729 42.9882 138.149 43.8132C136.594 44.6382 134.849 45.0507 132.916 45.0507ZM132.916 39.8178C134.071 39.8178 135.05 39.3935 135.851 38.545C136.676 37.6964 137.089 36.4825 137.089 34.9032C137.089 33.3239 136.688 32.11 135.886 31.2614C135.109 30.4128 134.142 29.9885 132.987 29.9885C131.809 29.9885 130.83 30.4128 130.052 31.2614C129.275 32.0864 128.886 33.3003 128.886 34.9032C128.886 36.4825 129.263 37.6964 130.017 38.545C130.795 39.3935 131.761 39.8178 132.916 39.8178ZM152.494 18.6035V44.7678H146.448V18.6035H152.494ZM159.917 22.9878C158.856 22.9878 157.984 22.6814 157.3 22.0685C156.64 21.4321 156.31 20.6542 156.31 19.735C156.31 18.7921 156.64 18.0142 157.3 17.4014C157.984 16.765 158.856 16.4467 159.917 16.4467C160.954 16.4467 161.802 16.765 162.462 17.4014C163.146 18.0142 163.488 18.7921 163.488 19.735C163.488 20.6542 163.146 21.4321 162.462 22.0685C161.802 22.6814 160.954 22.9878 159.917 22.9878ZM162.922 25.0385V44.7678H156.876V25.0385H162.922ZM177.203 30.0593H173.951V44.7678H167.904V30.0593H165.712V25.0385H167.904V24.4728C167.904 22.045 168.6 20.2064 169.991 18.9571C171.381 17.6842 173.42 17.0478 176.107 17.0478C176.555 17.0478 176.885 17.0596 177.097 17.0832V22.21C175.942 22.1392 175.129 22.3042 174.658 22.705C174.186 23.1057 173.951 23.8246 173.951 24.8617V25.0385H177.203V30.0593ZM198.642 34.585C198.642 35.1507 198.607 35.74 198.536 36.3528H184.853C184.947 37.5785 185.336 38.5214 186.02 39.1814C186.727 39.8178 187.587 40.136 188.601 40.136C190.109 40.136 191.158 39.4996 191.748 38.2268H198.183C197.853 39.5232 197.252 40.69 196.379 41.7271C195.531 42.7643 194.458 43.5775 193.162 44.1668C191.866 44.756 190.416 45.0507 188.813 45.0507C186.88 45.0507 185.159 44.6382 183.651 43.8132C182.142 42.9882 180.964 41.8096 180.115 40.2775C179.267 38.7453 178.842 36.9539 178.842 34.9032C178.842 32.8525 179.255 31.061 180.08 29.5289C180.928 27.9967 182.107 26.8182 183.616 25.9932C185.124 25.1682 186.857 24.7557 188.813 24.7557C190.722 24.7557 192.419 25.1564 193.904 25.9578C195.389 26.7592 196.544 27.9025 197.369 29.3875C198.218 30.8725 198.642 32.605 198.642 34.585ZM192.455 32.9939C192.455 31.9568 192.101 31.1318 191.394 30.5189C190.687 29.906 189.803 29.5996 188.742 29.5996C187.729 29.5996 186.868 29.8942 186.161 30.4835C185.478 31.0728 185.053 31.9096 184.888 32.9939H192.455Z" fill="#0096C7" />
  <path d="M22.9968 51.5017V58.3572H22.0881V51.5017H22.9968ZM27.2203 51.5017L24.2446 55.2732H22.6343L22.493 54.5198H23.7031L26.095 51.5017H27.2203ZM26.3068 58.3572L23.7313 55.1554L24.2399 54.3597L27.418 58.3572H26.3068ZM32.6491 51.5017V52.2456H29.5133V51.5017H32.6491ZM33.4307 51.5017V58.3572H32.522V51.5017H33.4307ZM29.2025 51.5017H30.1065L29.9512 54.8588C29.9292 55.3422 29.8915 55.7738 29.8382 56.1536C29.7879 56.5303 29.7157 56.8583 29.6216 57.1377C29.5274 57.4139 29.405 57.6431 29.2543 57.8251C29.1037 58.004 28.9185 58.1375 28.6987 58.2253C28.4821 58.3132 28.2216 58.3572 27.9171 58.3572H27.6723V57.618L27.8606 57.6038C28.0364 57.5913 28.1871 57.552 28.3126 57.4861C28.4413 57.4171 28.5496 57.3135 28.6375 57.1754C28.7285 57.0372 28.8023 56.8583 28.8588 56.6386C28.9153 56.4189 28.9593 56.1505 28.9907 55.8335C29.0252 55.5133 29.0519 55.1398 29.0707 54.7129L29.2025 51.5017ZM36.0156 56.7846L39.3916 51.5017H40.3003V58.3572H39.3916V53.0696L36.0156 58.3572H35.1116V51.5017H36.0156V56.7846ZM46.4307 54.4492V55.1884H42.7204V54.4492H46.4307ZM42.8617 51.5017V58.3572H41.9529V51.5017H42.8617ZM47.2217 51.5017V58.3572H46.3177V51.5017H47.2217ZM49.7831 56.7846L53.159 51.5017H54.0677V58.3572H53.159V53.0696L49.7831 58.3572H48.879V51.5017H49.7831V56.7846ZM56.6715 51.5017V58.3572H55.7628V51.5017H56.6715ZM60.8949 51.5017L57.9192 55.2732H56.3089L56.1677 54.5198H57.3778L59.7696 51.5017H60.8949ZM59.9815 58.3572L57.406 55.1554L57.9145 54.3597L61.0927 58.3572H59.9815ZM64.4545 52.1091L62.1851 58.3572H61.2575L63.8707 51.5017H64.4686L64.4545 52.1091ZM66.3567 58.3572L64.0826 52.1091L64.0684 51.5017H64.6664L67.289 58.3572H66.3567ZM66.239 55.8193V56.5633H62.3875V55.8193H66.239ZM74.7377 56.1772H75.6417C75.5947 56.6104 75.4707 56.998 75.2698 57.3402C75.0689 57.6823 74.7848 57.9538 74.4175 58.1547C74.0503 58.3525 73.592 58.4513 73.0427 58.4513C72.6409 58.4513 72.2752 58.376 71.9456 58.2253C71.6192 58.0747 71.3382 57.8612 71.1028 57.585C70.8674 57.3056 70.6853 56.9713 70.5566 56.5821C70.4311 56.1897 70.3683 55.7534 70.3683 55.2732V54.5904C70.3683 54.1102 70.4311 53.6754 70.5566 53.2862C70.6853 52.8938 70.869 52.558 71.1075 52.2786C71.3492 51.9992 71.6396 51.7842 71.9786 51.6335C72.3176 51.4829 72.699 51.4075 73.1227 51.4075C73.6407 51.4075 74.0785 51.5048 74.4364 51.6995C74.7942 51.8941 75.072 52.164 75.2698 52.5093C75.4707 52.8515 75.5947 53.2485 75.6417 53.7005H74.7377C74.6938 53.3804 74.6122 53.1057 74.4929 52.8766C74.3736 52.6443 74.2041 52.4654 73.9844 52.3398C73.7646 52.2143 73.4774 52.1515 73.1227 52.1515C72.8183 52.1515 72.5499 52.2095 72.3176 52.3257C72.0884 52.4418 71.8954 52.6066 71.7385 52.8201C71.5846 53.0335 71.4685 53.2893 71.39 53.5875C71.3116 53.8857 71.2723 54.2169 71.2723 54.581V55.2732C71.2723 55.609 71.3068 55.9245 71.3759 56.2196C71.4481 56.5146 71.5564 56.7736 71.7008 56.9964C71.8452 57.2193 72.0288 57.3951 72.2517 57.5238C72.4745 57.6493 72.7382 57.7121 73.0427 57.7121C73.4288 57.7121 73.7364 57.6509 73.9655 57.5285C74.1947 57.4061 74.3673 57.2303 74.4835 57.0012C74.6027 56.772 74.6875 56.4973 74.7377 56.1772ZM82.1582 54.7129V55.146C82.1582 55.6608 82.0938 56.1222 81.9652 56.5303C81.8365 56.9384 81.6513 57.2852 81.4096 57.5709C81.1679 57.8565 80.8775 58.0747 80.5385 58.2253C80.2026 58.376 79.826 58.4513 79.4085 58.4513C79.0036 58.4513 78.6316 58.376 78.2926 58.2253C77.9567 58.0747 77.6648 57.8565 77.4168 57.5709C77.172 57.2852 76.9821 56.9384 76.8471 56.5303C76.7121 56.1222 76.6446 55.6608 76.6446 55.146V54.7129C76.6446 54.1981 76.7105 53.7382 76.8424 53.3333C76.9774 52.9252 77.1673 52.5784 77.4121 52.2927C77.6569 52.0039 77.9473 51.7842 78.2832 51.6335C78.6222 51.4829 78.9941 51.4075 79.3991 51.4075C79.8165 51.4075 80.1932 51.4829 80.5291 51.6335C80.8681 51.7842 81.1584 52.0039 81.4001 52.2927C81.645 52.5784 81.8317 52.9252 81.9604 53.3333C82.0923 53.7382 82.1582 54.1981 82.1582 54.7129ZM81.2589 55.146V54.7034C81.2589 54.2954 81.2165 53.9344 81.1318 53.6205C81.0501 53.3066 80.9293 53.0429 80.7692 52.8295C80.6091 52.616 80.4129 52.4544 80.1807 52.3445C79.9515 52.2347 79.691 52.1797 79.3991 52.1797C79.1166 52.1797 78.8607 52.2347 78.6316 52.3445C78.4056 52.4544 78.211 52.616 78.0477 52.8295C77.8877 53.0429 77.7637 53.3066 77.6758 53.6205C77.5879 53.9344 77.5439 54.2954 77.5439 54.7034V55.146C77.5439 55.5572 77.5879 55.9214 77.6758 56.2384C77.7637 56.5523 77.8892 56.8175 78.0524 57.0341C78.2188 57.2476 78.415 57.4092 78.641 57.5191C78.8701 57.6289 79.126 57.6839 79.4085 57.6839C79.7035 57.6839 79.9656 57.6289 80.1948 57.5191C80.4239 57.4092 80.617 57.2476 80.7739 57.0341C80.934 56.8175 81.0549 56.5523 81.1365 56.2384C81.2181 55.9214 81.2589 55.5572 81.2589 55.146ZM85.9626 55.1507H84.2252L84.2158 54.4209H85.7931C86.0536 54.4209 86.2812 54.377 86.4758 54.2891C86.6704 54.2012 86.8211 54.0756 86.9278 53.9124C87.0377 53.7461 87.0926 53.5483 87.0926 53.3192C87.0926 53.068 87.044 52.864 86.9467 52.7071C86.8525 52.547 86.7065 52.4308 86.5088 52.3586C86.3142 52.2833 86.0662 52.2456 85.7649 52.2456H84.4277V58.3572H83.5189V51.5017H85.7649C86.1164 51.5017 86.4303 51.5378 86.7065 51.61C86.9828 51.6791 87.2166 51.7889 87.4081 51.9396C87.6027 52.0871 87.7502 52.2755 87.8507 52.5046C87.9511 52.7337 88.0014 53.0084 88.0014 53.3286C88.0014 53.6111 87.9292 53.8669 87.7848 54.0961C87.6404 54.3221 87.4395 54.5073 87.1821 54.6516C86.9278 54.796 86.6296 54.8886 86.2875 54.9294L85.9626 55.1507ZM85.9202 58.3572H83.8674L84.3806 57.618H85.9202C86.209 57.618 86.4539 57.5677 86.6547 57.4673C86.8588 57.3668 87.0142 57.2256 87.1209 57.0435C87.2276 56.8583 87.281 56.6402 87.281 56.3891C87.281 56.1348 87.2355 55.9151 87.1444 55.7299C87.0534 55.5447 86.9106 55.4019 86.716 55.3014C86.5213 55.201 86.2702 55.1507 85.9626 55.1507H84.6678L84.6772 54.4209H86.4476L86.6406 54.6846C86.9702 54.7129 87.2496 54.807 87.4787 54.9671C87.7079 55.1241 87.8821 55.325 88.0014 55.5698C88.1238 55.8146 88.185 56.0846 88.185 56.3796C88.185 56.8065 88.0908 57.1675 87.9025 57.4626C87.7173 57.7545 87.4552 57.9774 87.1162 58.1312C86.7772 58.2818 86.3785 58.3572 85.9202 58.3572ZM92.0553 55.6687H90.2237V54.9294H92.0553C92.41 54.9294 92.6972 54.8729 92.917 54.7599C93.1367 54.6469 93.2968 54.49 93.3972 54.2891C93.5008 54.0882 93.5526 53.8591 93.5526 53.6017C93.5526 53.3662 93.5008 53.145 93.3972 52.9378C93.2968 52.7306 93.1367 52.5642 92.917 52.4387C92.6972 52.31 92.41 52.2456 92.0553 52.2456H90.4356V58.3572H89.5269V51.5017H92.0553C92.5732 51.5017 93.0111 51.5912 93.369 51.7701C93.7268 51.949 93.9983 52.197 94.1835 52.514C94.3687 52.8279 94.4613 53.1873 94.4613 53.5923C94.4613 54.0317 94.3687 54.4068 94.1835 54.7176C93.9983 55.0283 93.7268 55.2653 93.369 55.4285C93.0111 55.5886 92.5732 55.6687 92.0553 55.6687ZM99.9655 57.618V58.3572H96.3353V57.618H99.9655ZM96.5189 51.5017V58.3572H95.6102V51.5017H96.5189ZM99.4852 54.4492V55.1884H96.3353V54.4492H99.4852ZM99.9184 51.5017V52.2456H96.3353V51.5017H99.9184ZM101.378 51.5017H102.258L104.504 57.0906L106.746 51.5017H107.631L104.843 58.3572H104.156L101.378 51.5017ZM101.091 51.5017H101.868L101.995 55.6828V58.3572H101.091V51.5017ZM107.136 51.5017H107.913V58.3572H107.009V55.6828L107.136 51.5017ZM113.865 57.618V58.3572H110.235V57.618H113.865ZM110.418 51.5017V58.3572H109.509V51.5017H110.418ZM113.384 54.4492V55.1884H110.235V54.4492H113.384ZM113.818 51.5017V52.2456H110.235V51.5017H113.818ZM119.468 54.4492V55.1884H115.758V54.4492H119.468ZM115.899 51.5017V58.3572H114.99V51.5017H115.899ZM120.259 51.5017V58.3572H119.355V51.5017H120.259ZM126.351 54.4492V55.1884H122.641V54.4492H126.351ZM122.782 51.5017V58.3572H121.874V51.5017H122.782ZM127.143 51.5017V58.3572H126.238V51.5017H127.143ZM134.036 54.7129V55.146C134.036 55.6608 133.971 56.1222 133.843 56.5303C133.714 56.9384 133.529 57.2852 133.287 57.5709C133.045 57.8565 132.755 58.0747 132.416 58.2253C132.08 58.376 131.703 58.4513 131.286 58.4513C130.881 58.4513 130.509 58.376 130.17 58.2253C129.834 58.0747 129.542 57.8565 129.294 57.5709C129.049 57.2852 128.86 56.9384 128.725 56.5303C128.59 56.1222 128.522 55.6608 128.522 55.146V54.7129C128.522 54.1981 128.588 53.7382 128.72 53.3333C128.855 52.9252 129.045 52.5784 129.29 52.2927C129.534 52.0039 129.825 51.7842 130.161 51.6335C130.5 51.4829 130.872 51.4075 131.277 51.4075C131.694 51.4075 132.071 51.4829 132.407 51.6335C132.746 51.7842 133.036 52.0039 133.278 52.2927C133.522 52.5784 133.709 52.9252 133.838 53.3333C133.97 53.7382 134.036 54.1981 134.036 54.7129ZM133.136 55.146V54.7034C133.136 54.2954 133.094 53.9344 133.009 53.6205C132.928 53.3066 132.807 53.0429 132.647 52.8295C132.487 52.616 132.29 52.4544 132.058 52.3445C131.829 52.2347 131.568 52.1797 131.277 52.1797C130.994 52.1797 130.738 52.2347 130.509 52.3445C130.283 52.4544 130.088 52.616 129.925 52.8295C129.765 53.0429 129.641 53.3066 129.553 53.6205C129.465 53.9344 129.421 54.2954 129.421 54.7034V55.146C129.421 55.5572 129.465 55.9214 129.553 56.2384C129.641 56.5523 129.767 56.8175 129.93 57.0341C130.096 57.2476 130.292 57.4092 130.518 57.5191C130.748 57.6289 131.003 57.6839 131.286 57.6839C131.581 57.6839 131.843 57.6289 132.072 57.5191C132.301 57.4092 132.494 57.2476 132.651 57.0341C132.811 56.8175 132.932 56.5523 133.014 56.2384C133.096 55.9214 133.136 55.5572 133.136 55.146ZM136.343 56.7846L139.719 51.5017H140.627V58.3572H139.719V53.0696L136.343 58.3572H135.439V51.5017H136.343V56.7846ZM138.753 49.802H139.46C139.46 50.0468 139.403 50.265 139.29 50.4564C139.177 50.6448 139.016 50.7923 138.805 50.899C138.595 51.0058 138.345 51.0591 138.057 51.0591C137.62 51.0591 137.275 50.943 137.021 50.7107C136.77 50.4753 136.644 50.1724 136.644 49.802H137.35C137.35 49.9872 137.404 50.1504 137.51 50.2916C137.617 50.4329 137.799 50.5035 138.057 50.5035C138.308 50.5035 138.487 50.4329 138.593 50.2916C138.7 50.1504 138.753 49.9872 138.753 49.802ZM147.05 52.1844H148.184C148.58 52.1844 148.946 52.2519 149.282 52.3869C149.621 52.5187 149.916 52.7071 150.167 52.9519C150.421 53.1967 150.619 53.4887 150.76 53.8277C150.901 54.1635 150.972 54.5355 150.972 54.9436C150.972 55.3516 150.901 55.7252 150.76 56.0642C150.619 56.4032 150.421 56.6967 150.167 56.9446C149.916 57.1895 149.621 57.3794 149.282 57.5144C148.946 57.6462 148.58 57.7121 148.184 57.7121H147.05C146.654 57.7121 146.289 57.6462 145.953 57.5144C145.617 57.3794 145.322 57.1895 145.067 56.9446C144.816 56.6998 144.62 56.4095 144.479 56.0736C144.341 55.7346 144.272 55.361 144.272 54.953C144.272 54.5449 144.341 54.173 144.479 53.8371C144.62 53.4981 144.816 53.2062 145.067 52.9613C145.322 52.7133 145.617 52.5219 145.953 52.3869C146.289 52.2519 146.654 52.1844 147.05 52.1844ZM147.05 52.9001C146.639 52.9001 146.29 52.9864 146.004 53.1591C145.719 53.3286 145.502 53.5671 145.355 53.8748C145.207 54.1824 145.133 54.5418 145.133 54.953C145.133 55.2637 145.174 55.5447 145.256 55.7958C145.341 56.0469 145.465 56.2619 145.628 56.4408C145.791 56.6198 145.992 56.7579 146.23 56.8552C146.469 56.9525 146.742 57.0012 147.05 57.0012H148.194C148.602 57.0012 148.947 56.9164 149.23 56.7469C149.515 56.5743 149.732 56.3341 149.879 56.0265C150.03 55.7158 150.105 55.3548 150.105 54.9436C150.105 54.636 150.063 54.3566 149.978 54.1055C149.894 53.8544 149.77 53.6393 149.606 53.4604C149.446 53.2815 149.247 53.1434 149.008 53.0461C148.773 52.9488 148.501 52.9001 148.194 52.9001H147.05ZM148.057 51.2192V58.6397H147.186V51.2192H148.057ZM156.528 51.5017V52.2456H153.392V51.5017H156.528ZM157.309 51.5017V58.3572H156.401V51.5017H157.309ZM153.081 51.5017H153.985L153.83 54.8588C153.808 55.3422 153.77 55.7738 153.717 56.1536C153.667 56.5303 153.594 56.8583 153.5 57.1377C153.406 57.4139 153.284 57.6431 153.133 57.8251C152.982 58.004 152.797 58.1375 152.577 58.2253C152.361 58.3132 152.1 58.3572 151.796 58.3572H151.551V57.618L151.739 57.6038C151.915 57.5913 152.066 57.552 152.191 57.4861C152.32 57.4171 152.428 57.3135 152.516 57.1754C152.607 57.0372 152.681 56.8583 152.738 56.6386C152.794 56.4189 152.838 56.1505 152.869 55.8335C152.904 55.5133 152.931 55.1398 152.949 54.7129L153.081 51.5017ZM163.303 57.618V58.3572H159.673V57.618H163.303ZM159.857 51.5017V58.3572H158.948V51.5017H159.857ZM162.823 54.4492V55.1884H159.673V54.4492H162.823ZM163.256 51.5017V52.2456H159.673V51.5017H163.256ZM168.61 51.5017V52.2456H165.304V58.3572H164.4V51.5017H168.61ZM165.092 54.2938H166.962C167.464 54.2938 167.888 54.3786 168.233 54.5481C168.578 54.7144 168.84 54.9483 169.019 55.2496C169.198 55.551 169.288 55.9041 169.288 56.309C169.288 56.6104 169.237 56.8866 169.137 57.1377C169.037 57.3857 168.887 57.6023 168.69 57.7875C168.492 57.9695 168.249 58.1108 167.96 58.2112C167.671 58.3085 167.338 58.3572 166.962 58.3572H164.4V51.5017H165.309V57.618H166.962C167.298 57.618 167.569 57.5567 167.776 57.4343C167.987 57.3088 168.14 57.1455 168.238 56.9446C168.335 56.7438 168.384 56.5287 168.384 56.2996C168.384 56.0705 168.335 55.8601 168.238 55.6687C168.14 55.4772 167.987 55.325 167.776 55.2119C167.569 55.0958 167.298 55.0377 166.962 55.0377H165.092V54.2938ZM175.79 54.7129V55.146C175.79 55.6608 175.726 56.1222 175.597 56.5303C175.468 56.9384 175.283 57.2852 175.041 57.5709C174.8 57.8565 174.509 58.0747 174.17 58.2253C173.834 58.376 173.458 58.4513 173.04 58.4513C172.635 58.4513 172.263 58.376 171.924 58.2253C171.588 58.0747 171.297 57.8565 171.049 57.5709C170.804 57.2852 170.614 56.9384 170.479 56.5303C170.344 56.1222 170.276 55.6608 170.276 55.146V54.7129C170.276 54.1981 170.342 53.7382 170.474 53.3333C170.609 52.9252 170.799 52.5784 171.044 52.2927C171.289 52.0039 171.579 51.7842 171.915 51.6335C172.254 51.4829 172.626 51.4075 173.031 51.4075C173.448 51.4075 173.825 51.4829 174.161 51.6335C174.5 51.7842 174.79 52.0039 175.032 52.2927C175.277 52.5784 175.464 52.9252 175.592 53.3333C175.724 53.7382 175.79 54.1981 175.79 54.7129ZM174.891 55.146V54.7034C174.891 54.2954 174.848 53.9344 174.764 53.6205C174.682 53.3066 174.561 53.0429 174.401 52.8295C174.241 52.616 174.045 52.4544 173.812 52.3445C173.583 52.2347 173.323 52.1797 173.031 52.1797C172.748 52.1797 172.492 52.2347 172.263 52.3445C172.037 52.4544 171.843 52.616 171.68 52.8295C171.519 53.0429 171.395 53.3066 171.308 53.6205C171.22 53.9344 171.176 54.2954 171.176 54.7034V55.146C171.176 55.5572 171.22 55.9214 171.308 56.2384C171.395 56.5523 171.521 56.8175 171.684 57.0341C171.851 57.2476 172.047 57.4092 172.273 57.5191C172.502 57.6289 172.758 57.6839 173.04 57.6839C173.335 57.6839 173.597 57.6289 173.827 57.5191C174.056 57.4092 174.249 57.2476 174.406 57.0341C174.566 56.8175 174.687 56.5523 174.768 56.2384C174.85 55.9214 174.891 55.5572 174.891 55.146ZM181.407 51.5017V52.2456H178.271V51.5017H181.407ZM182.189 51.5017V58.3572H181.28V51.5017H182.189ZM177.961 51.5017H178.865L178.709 54.8588C178.687 55.3422 178.65 55.7738 178.596 56.1536C178.546 56.5303 178.474 56.8583 178.38 57.1377C178.285 57.4139 178.163 57.6431 178.012 57.8251C177.862 58.004 177.676 58.1375 177.457 58.2253C177.24 58.3132 176.98 58.3572 176.675 58.3572H176.43V57.618L176.619 57.6038C176.794 57.5913 176.945 57.552 177.071 57.4861C177.199 57.4171 177.308 57.3135 177.396 57.1754C177.487 57.0372 177.56 56.8583 177.617 56.6386C177.673 56.4189 177.717 56.1505 177.749 55.8335C177.783 55.5133 177.81 55.1398 177.829 54.7129L177.961 51.5017ZM189.105 54.7129V55.146C189.105 55.6608 189.041 56.1222 188.912 56.5303C188.784 56.9384 188.598 57.2852 188.357 57.5709C188.115 57.8565 187.825 58.0747 187.486 58.2253C187.15 58.376 186.773 58.4513 186.356 58.4513C185.951 58.4513 185.579 58.376 185.24 58.2253C184.904 58.0747 184.612 57.8565 184.364 57.5709C184.119 57.2852 183.929 56.9384 183.794 56.5303C183.659 56.1222 183.592 55.6608 183.592 55.146V54.7129C183.592 54.1981 183.658 53.7382 183.79 53.3333C183.925 52.9252 184.114 52.5784 184.359 52.2927C184.604 52.0039 184.894 51.7842 185.23 51.6335C185.569 51.4829 185.941 51.4075 186.346 51.4075C186.764 51.4075 187.14 51.4829 187.476 51.6335C187.815 51.7842 188.106 52.0039 188.347 52.2927C188.592 52.5784 188.779 52.9252 188.908 53.3333C189.039 53.7382 189.105 54.1981 189.105 54.7129ZM188.206 55.146V54.7034C188.206 54.2954 188.164 53.9344 188.079 53.6205C187.997 53.3066 187.876 53.0429 187.716 52.8295C187.556 52.616 187.36 52.4544 187.128 52.3445C186.899 52.2347 186.638 52.1797 186.346 52.1797C186.064 52.1797 185.808 52.2347 185.579 52.3445C185.353 52.4544 185.158 52.616 184.995 52.8295C184.835 53.0429 184.711 53.3066 184.623 53.6205C184.535 53.9344 184.491 54.2954 184.491 54.7034V55.146C184.491 55.5572 184.535 55.9214 184.623 56.2384C184.711 56.5523 184.836 56.8175 185 57.0341C185.166 57.2476 185.362 57.4092 185.588 57.5191C185.817 57.6289 186.073 57.6839 186.356 57.6839C186.651 57.6839 186.913 57.6289 187.142 57.5191C187.371 57.4092 187.564 57.2476 187.721 57.0341C187.881 56.8175 188.002 56.5523 188.084 56.2384C188.165 55.9214 188.206 55.5572 188.206 55.146ZM194.718 51.5017V52.2456H191.413V58.3572H190.508V51.5017H194.718ZM196.78 56.7846L200.156 51.5017H201.065V58.3572H200.156V53.0696L196.78 58.3572H195.876V51.5017H196.78V56.7846ZM203.664 56.7846L207.04 51.5017H207.949V58.3572H207.04V53.0696L203.664 58.3572H202.76V51.5017H203.664V56.7846Z" fill="#2D3142" />
  <mask id="path-3-inside-1_42_1240" fill="white">
    <path d="M55.185 71.3475C49.0191 74.6066 42.0642 76.0751 35.1071 75.5869C28.1499 75.0986 21.4683 72.673 15.8182 68.5845C10.168 64.496 5.77486 58.9078 3.13573 52.4522C0.496611 45.9966 -0.283133 38.9312 0.884722 32.0554C2.05258 25.1797 5.12142 18.768 9.74403 13.5458C14.3666 8.32356 20.3585 4.4993 27.0417 2.50564C33.7249 0.511989 40.8327 0.428528 47.5609 2.2647C54.2891 4.10088 60.3691 7.78339 65.1131 12.8956L62.498 15.3223C58.207 10.6982 52.7074 7.36727 46.6216 5.7064C40.5358 4.04554 34.1067 4.12103 28.0616 5.92434C22.0164 7.72765 16.5966 11.1868 12.4154 15.9104C8.23411 20.634 5.45827 26.4335 4.40191 32.6528C3.34556 38.8721 4.05086 45.2629 6.43801 51.1022C8.82516 56.9414 12.7989 61.9961 17.9096 65.6942C23.0203 69.3924 29.064 71.5864 35.3568 72.028C41.6497 72.4697 47.9406 71.1414 53.5178 68.1934L55.185 71.3475Z" />
  </mask>
  <path d="M55.185 71.3475C49.0191 74.6066 42.0642 76.0751 35.1071 75.5869C28.1499 75.0986 21.4683 72.673 15.8182 68.5845C10.168 64.496 5.77486 58.9078 3.13573 52.4522C0.496611 45.9966 -0.283133 38.9312 0.884722 32.0554C2.05258 25.1797 5.12142 18.768 9.74403 13.5458C14.3666 8.32356 20.3585 4.4993 27.0417 2.50564C33.7249 0.511989 40.8327 0.428528 47.5609 2.2647C54.2891 4.10088 60.3691 7.78339 65.1131 12.8956L62.498 15.3223C58.207 10.6982 52.7074 7.36727 46.6216 5.7064C40.5358 4.04554 34.1067 4.12103 28.0616 5.92434C22.0164 7.72765 16.5966 11.1868 12.4154 15.9104C8.23411 20.634 5.45827 26.4335 4.40191 32.6528C3.34556 38.8721 4.05086 45.2629 6.43801 51.1022C8.82516 56.9414 12.7989 61.9961 17.9096 65.6942C23.0203 69.3924 29.064 71.5864 35.3568 72.028C41.6497 72.4697 47.9406 71.1414 53.5178 68.1934L55.185 71.3475Z" fill="#48CAE4" stroke="#48CAE4" stroke-width="1.60714" mask="url(#path-3-inside-1_42_1240)" />
</svg>